<?xml version="1.0" encoding="utf-8"?>
<!-- Generator: Adobe Illustrator 15.0.2, SVG Export Plug-In . SVG Version: 6.00 Build 0)  -->
<!DOCTYPE svg PUBLIC "-//W3C//DTD SVG 1.1//EN" "http://www.w3.org/Graphics/SVG/1.1/DTD/svg11.dtd">
<svg version="1.1" id="Camada_1" xmlns="http://www.w3.org/2000/svg" xmlns:xlink="http://www.w3.org/1999/xlink" x="0px" y="0px"
	 width="632px" height="308px" viewBox="0 -33 632 308" enable-background="new 0 -33 632 308" xml:space="preserve">
<path fill="#1B1B1B" d="M611.664,125.925c4.07,4.636,7.195,10.011,9.374,16.121c2.178,6.109,3.268,12.68,3.268,19.703
	c0,7.024-1.23,13.592-3.688,19.7c-2.459,6.111-5.796,11.417-10.01,15.91c-4.215,4.498-9.168,8.08-14.855,10.749
	c-5.689,2.666-11.837,4.004-18.438,4.004c-7.164,0-13.663-1.338-19.49-4.004c-5.831-2.669-10.784-6.251-14.856-10.749
	c-4.075-4.635-7.235-10.01-9.482-16.121c-2.248-6.11-3.372-12.606-3.372-19.489c0-7.166,1.229-13.768,3.688-19.808
	c2.455-6.041,5.862-11.381,10.22-16.017c4.214-4.495,9.167-8.076,14.856-10.747c5.688-2.668,11.832-4.004,18.438-4.004
	c7.165,0,13.661,1.338,19.492,4.004C602.634,117.85,607.586,121.43,611.664,125.925 M598.596,158.589
	c0-6.746-0.843-12.045-2.526-15.91c-1.688-3.864-3.726-6.777-6.112-8.745c-2.391-1.966-4.741-3.267-7.059-3.899
	c-2.317-0.631-4.183-0.947-5.585-0.947c-1.827,0-4.005,0.354-6.531,1.053c-2.249,0.843-4.426,2.32-6.532,4.425
	c-2.106,2.251-3.937,5.517-5.479,9.799c-1.547,4.287-2.46,10.011-2.739,17.173c-0.141,0.705-0.211,1.76-0.211,3.161
	c0,6.743,0.875,12.05,2.634,15.91c1.756,3.867,3.757,6.78,6.006,8.747c2.388,1.968,4.773,3.266,7.164,3.896
	c2.388,0.633,4.283,0.947,5.689,0.947c0.98,0,2.035-0.068,3.16-0.21c1.124-0.137,2.247-0.422,3.372-0.843
	c2.387-0.98,4.563-2.455,6.531-4.426c2.106-2.246,3.932-5.514,5.48-9.799c1.543-4.283,2.455-10.008,2.736-17.172L598.596,158.589
	L598.596,158.589z M429.007,191.734c-0.842-3.297-1.264-6.567-1.264-9.798v-20.229v-2.951c0-3.373-0.242-6.392-0.736-9.063
	c-0.49-2.666-1.158-4.984-2.002-6.953c-1.266-3.087-2.812-5.511-4.637-7.27c-1.822-1.756-3.65-3.125-5.479-4.109
	c-1.967-0.98-3.795-1.613-5.479-1.896c-1.687-0.278-3.088-0.42-4.216-0.42c-0.7,0-1.438,0.037-2.211,0.104
	c-0.771,0.072-1.65,0.105-2.635,0.105c-1.965,0-3.969-0.105-6.006-0.314c-2.035-0.21-4.039-0.666-6.006-1.368
	c-2.248-0.981-4.004-2.108-5.269-3.372c-1.401-1.545-2.388-3.583-2.95-6.11v-0.842l0.844-0.425c2.528-0.979,5.198-1.896,8.008-2.737
	c2.391-0.703,5.162-1.371,8.321-2.002c3.162-0.631,6.569-0.947,10.222-0.947c7.164,0,13.56,1.334,19.176,4.002
	c5.619,2.672,10.469,6.252,14.539,10.747c4.076,4.638,7.133,10.009,9.167,16.121c2.038,6.11,3.056,12.682,3.056,19.703
	l-0.211,14.537v6.639c0,2.738,0.073,5.656,0.211,8.746c0.143,3.093,0.283,6.217,0.422,9.377c0.143,3.162,0.354,6.006,0.632,8.533
	h-1.265c-4.774,0-8.813-0.806-12.115-2.422c-3.299-1.613-5.935-3.759-7.902-6.428C431.257,198.023,429.851,195.038,429.007,191.734z
	 M449.403,184.817c-1.725,3.79-3.89,7.268-6.487,10.434c-3.655,4.5-8.112,8.187-13.382,11.065
	c-5.27,2.877-11.136,4.668-17.596,5.371c-0.844,0.142-1.723,0.244-2.635,0.319c-0.914,0.067-1.791,0.104-2.633,0.104
	c-3.094,0-6.289-0.283-9.588-0.845c-3.305-0.563-6.57-1.55-9.799-2.948c-3.232-1.266-6.254-2.984-9.063-5.164
	c-2.812-2.176-5.197-4.878-7.163-8.113c-2.671-4.492-4.075-9.693-4.214-15.593v-1.265c0-5.48,1.19-10.252,3.58-14.329
	c2.39-4.073,5.551-7.376,9.483-9.904s8.322-4.39,13.172-5.584c4.845-1.192,9.937-1.79,15.274-1.79
	c6.882,0,13.346,0.914,19.387,2.737C427.32,146.227,452.804,177.351,449.403,184.817z M424.159,181.767
	c1.266-2.389,2.18-4.848,2.74-7.375c0.561-2.529,0.913-4.917,1.053-7.165c-0.563-0.138-1.156-0.28-1.79-0.421
	c-0.632-0.139-1.37-0.278-2.212-0.422c-1.828-0.42-3.865-0.771-6.111-1.055c-2.248-0.279-4.566-0.421-6.953-0.421h-0.209
	c-3.938,0-7.377,0.493-10.328,1.476c-3.37,1.125-5.828,2.74-7.373,4.846c-1.268,1.549-2.107,3.516-2.529,5.902v1.685
	c0,1.267,0.174,2.634,0.525,4.11c0.352,1.474,1.088,2.846,2.214,4.107c1.265,1.549,2.81,2.67,4.635,3.372
	c2.108,0.843,4.849,1.263,8.22,1.263h2.528c3.931-0.42,7.164-1.475,9.692-3.16C420.647,186.823,422.612,184.579,424.159,181.767z
	 M484.218,200.732c-1.97,2.671-4.604,4.813-7.902,6.427c-3.303,1.619-7.342,2.424-12.116,2.424h-1.266
	c0.28-2.529,0.489-5.373,0.633-8.535c0.14-3.16,0.28-6.285,0.421-9.375c0.138-3.09,0.212-6.006,0.212-8.746v-6.637l-0.212-14.539
	c0-7.023,1.016-13.594,3.057-19.703c2.034-6.11,5.092-11.485,9.166-16.121c4.073-4.495,8.92-8.077,14.54-10.749
	c5.617-2.666,12.012-4.002,19.176-4.002c3.651,0,7.06,0.315,10.221,0.949c3.16,0.631,5.934,1.301,8.323,2
	c2.809,0.844,5.479,1.76,8.008,2.741l0.843,0.421v0.842c-0.563,2.528-1.548,4.566-2.95,6.11c-1.265,1.268-3.021,2.391-5.268,3.373
	c-1.969,0.705-3.974,1.158-6.006,1.372c-2.038,0.209-4.04,0.315-6.008,0.315c-0.983,0-1.862-0.034-2.633-0.105
	c-0.772-0.07-1.512-0.105-2.213-0.105c-1.126,0-2.528,0.144-4.214,0.42c-1.687,0.283-3.515,0.918-5.479,1.896
	c-1.828,0.988-3.655,2.357-5.479,4.112c-1.828,1.757-3.373,4.179-4.639,7.269c-0.843,1.969-1.512,4.287-1.999,6.953
	c-0.495,2.668-0.738,5.691-0.738,9.063v2.949v20.229c0,3.233-0.421,6.499-1.266,9.8
	C487.589,195.079,486.182,198.065,484.218,200.732z M290.647,200.732c-1.968-2.667-3.337-5.653-4.107-8.954
	c-0.774-3.301-1.159-6.566-1.159-9.8V100.85c0-4.917,0.385-9.198,1.159-12.855c0.77-3.649,1.928-6.878,3.476-9.693
	c2.81-5.056,7.093-8.709,12.855-10.957c1.824-0.7,3.72-1.297,5.689-1.792c1.964-0.49,4.072-0.874,6.322-1.158
	c2.81-0.279,5.828-0.488,9.061-0.632c3.229-0.139,6.671-0.211,10.325-0.211h22.126c9.131,0,16.188-0.104,21.179-0.315
	c4.982-0.21,8.04-0.387,9.164-0.529h0.422l0.211-0.211h1.266v1.267c0,2.39-0.248,4.498-0.736,6.321
	c-0.494,1.827-1.091,3.515-1.792,5.056c-1.548,2.673-3.726,4.781-6.533,6.322c-2.812,1.406-5.795,2.25-8.954,2.529
	c-3.16,0.286-6.357,0.421-9.588,0.421H317.2c-0.842,0.142-1.547,0.286-2.106,0.421c-0.563,0.143-1.055,0.353-1.476,0.632
	c-0.843,0.424-1.474,0.985-1.896,1.687c-0.563,0.704-0.915,1.654-1.054,2.847c-0.143,1.195-0.211,2.563-0.211,4.107v29.906h26.34
	c9.272,0,16.398-0.106,21.389-0.315c4.986-0.211,7.811-1.247,8.949-1.628l1.904-0.568v1.267c0,4.634-0.844,8.428-2.529,11.378
	c-0.704,1.548-1.616,2.813-2.739,3.792c-1.124,0.985-2.392,1.83-3.793,2.528c-2.812,1.406-5.795,2.25-8.956,2.529
	c-3.159,0.282-6.355,0.422-9.588,0.422h-30.977v34.137c0,9.133,0.138,16.193,0.421,21.18c0.28,4.986,0.491,8.042,0.633,9.166v0.422
	l0.21,1.264h-1.265h-0.21c-4.637,0-8.571-0.806-11.801-2.424C295.212,205.546,292.613,203.402,290.647,200.732z"/>
<path fill="#C63839" d="M27.884,155.788C13.534,121.548,42.272,81.061,62.537,70c8.317-4.542,26.436-16.354,47.214-28.342
	c-27.638,0.181-56.626,4.322-70.669,11.985C18.821,64.708-1.885,121.102,12.464,155.341c14.35,34.24,83.575,80.601,120.874,76.574
	c0.33-0.037,0.67-0.101,1.002-0.152C95.86,225.585,40.542,185.988,27.884,155.788"/>
<path fill="#C63839" d="M208.027,169.688c18.027-33.963,63.71-106.911,52.817-124.099C239.56,11.991,194.703,9.718,194.703,9.718
	c-19.758-2.919-55.107,14.707-84.952,31.939c12.25-0.076,24.226,0.621,34.521,2.138c0,0,44.855,2.272,66.145,35.868
	c10.89,17.189,0.211,55.611-17.814,89.575c-16.877,31.802-40.188,59.659-58.262,62.524c5.149,0.826,10.014,1.076,14.418,0.596
	C166.963,230.395,190.834,202.068,208.027,169.688"/>
<path fill="#911B28" d="M192.603,169.238c18.026-33.964,28.705-72.385,17.813-89.575c-21.288-33.596-66.143-35.869-66.143-35.869
	c-10.295-1.517-22.272-2.214-34.521-2.138c-20.779,11.986-38.896,23.8-47.214,28.341c-20.264,11.064-49.002,51.55-34.652,85.792
	c12.656,30.197,67.975,69.793,106.454,75.973C152.413,228.898,175.726,201.038,192.603,169.238"/>
</svg>
